<svg xmlns="http://www.w3.org/2000/svg" xmlns:xlink="http://www.w3.org/1999/xlink" width="1080" zoomAndPan="magnify" viewBox="0 0 810 809.999993" height="1080" preserveAspectRatio="xMidYMid meet" version="1.2"><defs><clipPath id="f5f70040f8"><path d="M 40.5 40.5 L 769.5 40.5 L 769.5 769.5 L 40.5 769.5 Z M 40.5 40.5 "/></clipPath><clipPath id="7a4431bc45"><path d="M 405 40.5 C 203.691406 40.5 40.5 203.691406 40.5 405 C 40.5 606.308594 203.691406 769.5 405 769.5 C 606.308594 769.5 769.5 606.308594 769.5 405 C 769.5 203.691406 606.308594 40.5 405 40.5 Z M 405 40.5 "/></clipPath></defs><g id="dd910ea489"><g clip-rule="nonzero" clip-path="url(#f5f70040f8)"><g clip-rule="nonzero" clip-path="url(#7a4431bc45)"><path style=" stroke:none;fill-rule:nonzero;fill:#292929;fill-opacity:1;" d="M 40.5 40.5 L 769.5 40.5 L 769.5 769.5 L 40.5 769.5 Z M 40.5 40.5 "/></g></g><g style="fill:#ffffff;fill-opacity:1;"><g transform="translate(112.251195, 577.871409)"><path style="stroke:none" d="M 141.515625 -330.046875 C 187.160156 -330.046875 226.332031 -313.867188 259.03125 -281.515625 C 291.382812 -249.148438 307.5625 -209.976562 307.5625 -164 C 307.5625 -118.363281 291.382812 -79.195312 259.03125 -46.5 C 226.332031 -14.132812 187.160156 2.046875 141.515625 2.046875 L 15.328125 2.046875 L 15.328125 -330.046875 Z M 204.875 -100.65625 C 222.238281 -118.019531 230.921875 -139.132812 230.921875 -164 C 230.921875 -188.519531 222.238281 -209.804688 204.875 -227.859375 C 187.5 -245.234375 166.210938 -253.921875 141.015625 -253.921875 L 95.03125 -253.921875 L 95.03125 -74.59375 L 141.515625 -74.59375 C 166.378906 -74.59375 187.5 -83.28125 204.875 -100.65625 Z M 204.875 -100.65625 "/></g></g><g style="fill:#ffffff;fill-opacity:1;"><g transform="translate(435.14124, 577.871409)"><path style="stroke:none" d="M 95.03125 -130.28125 L 95.03125 -71.53125 L 247.28125 -71.53125 L 247.28125 0 L 15.328125 0 L 15.328125 -332.09375 L 247.28125 -332.09375 L 247.28125 -260.5625 L 95.03125 -260.5625 L 95.03125 -201.8125 L 224.28125 -201.8125 L 224.28125 -130.28125 Z M 95.03125 -130.28125 "/></g></g></g></svg>