<svg xmlns="http://www.w3.org/2000/svg" xmlns:xlink="http://www.w3.org/1999/xlink" width="40" zoomAndPan="magnify" viewBox="0 0 30 30.000001" height="40" preserveAspectRatio="xMidYMid meet" version="1.2"><defs><clipPath id="2934cd0a52"><path d="M 1.0625 5.523438 L 28.644531 5.523438 L 28.644531 23.324219 L 1.0625 23.324219 Z M 1.0625 5.523438 "/></clipPath></defs><g id="cf276774a2"><g clip-rule="nonzero" clip-path="url(#2934cd0a52)"><path style="fill:none;stroke-width:4;stroke-linecap:butt;stroke-linejoin:miter;stroke:#ffffff;stroke-opacity:1;stroke-miterlimit:4;" d="M -0.00147968 -0.00132488 L 38.391075 -0.00132488 L 38.391075 24.776309 L -0.00147968 24.776309 Z M -0.00147968 -0.00132488 " transform="matrix(0.718421,0,0,0.718421,1.063563,5.524389)"/></g><g style="fill:#ffffff;fill-opacity:1;"><g transform="translate(6.069365, 19.273194)"><path style="stroke:none" d="M 4.125 -9.625 C 5.457031 -9.625 6.601562 -9.15625 7.5625 -8.21875 C 8.5 -7.269531 8.96875 -6.125 8.96875 -4.78125 C 8.96875 -3.445312 8.5 -2.304688 7.5625 -1.359375 C 6.601562 -0.410156 5.457031 0.0625 4.125 0.0625 L 0.453125 0.0625 L 0.453125 -9.625 Z M 5.984375 -2.9375 C 6.484375 -3.445312 6.734375 -4.0625 6.734375 -4.78125 C 6.734375 -5.5 6.484375 -6.117188 5.984375 -6.640625 C 5.472656 -7.148438 4.847656 -7.40625 4.109375 -7.40625 L 2.765625 -7.40625 L 2.765625 -2.171875 L 4.125 -2.171875 C 4.851562 -2.171875 5.472656 -2.425781 5.984375 -2.9375 Z M 5.984375 -2.9375 "/></g></g><g style="fill:#ffffff;fill-opacity:1;"><g transform="translate(16.26254, 19.273194)"><path style="stroke:none" d="M 2.765625 -3.796875 L 2.765625 -2.09375 L 7.21875 -2.09375 L 7.21875 0 L 0.453125 0 L 0.453125 -9.6875 L 7.21875 -9.6875 L 7.21875 -7.609375 L 2.765625 -7.609375 L 2.765625 -5.890625 L 6.546875 -5.890625 L 6.546875 -3.796875 Z M 2.765625 -3.796875 "/></g></g></g></svg>